<svg xmlns="http://www.w3.org/2000/svg" width="1180" height="300" viewBox="0 0 1180 300" role="img" aria-label="Pipeline Diagram">
  <style>
    .stage { fill:#ffffff; stroke:#d0d3d8; stroke-width:1.4; rx:18; }
    .label { font:500 13px -apple-system,BlinkMacSystemFont,'Helvetica Neue',Arial,sans-serif; fill:#0d0d0f; }
    .subtitle { font:400 10px -apple-system,BlinkMacSystemFont,'Helvetica Neue',Arial,sans-serif; fill:#555; }
    .arrow { stroke:#9aa0a6; stroke-width:2; marker-end:url(#arrowhead); }
  </style>
  <defs>
    <marker id="arrowhead" markerWidth="8" markerHeight="8" refX="5" refY="3" orient="auto" markerUnits="strokeWidth">
      <path d="M0,0 L0,6 L6,3 z" fill="#9aa0a6" />
    </marker>
  </defs>
  <g transform="translate(20,40)">
    <rect class="stage" width="140" height="110" />
    <text class="label" x="16" y="32">1. Acquisition</text>
    <text class="subtitle" x="16" y="54">Exposure lock</text>
    <text class="subtitle" x="16" y="70">1080p60</text>
  </g>
  <g transform="translate(200,40)">
    <rect class="stage" width="160" height="110" />
    <text class="label" x="16" y="32">2. Stabilization</text>
    <text class="subtitle" x="16" y="54">Gimbal + digital</text>
    <text class="subtitle" x="16" y="70">Frame align</text>
  </g>
  <g transform="translate(400,40)">
    <rect class="stage" width="170" height="110" />
    <text class="label" x="16" y="32">3. Mesh & ROIs</text>
    <text class="subtitle" x="16" y="54">Face mesh</text>
    <text class="subtitle" x="16" y="70">30 micro regions</text>
  </g>
  <g transform="translate(610,40)">
    <rect class="stage" width="170" height="110" />
    <text class="label" x="16" y="32">4. Noise Model</text>
    <text class="subtitle" x="16" y="54">Regression</text>
    <text class="subtitle" x="16" y="70">Motion & light</text>
  </g>
  <g transform="translate(820,40)">
    <rect class="stage" width="150" height="110" />
    <text class="label" x="16" y="32">5. rPPG</text>
    <text class="subtitle" x="16" y="54">POS + CHROM</text>
    <text class="subtitle" x="16" y="70">Band-pass</text>
  </g>
  <g transform="translate(1000,40)">
    <rect class="stage" width="160" height="110" />
    <text class="label" x="16" y="32">6. Fusion & HR</text>
    <text class="subtitle" x="16" y="54">SNR gating</text>
    <text class="subtitle" x="16" y="70">Median spectra</text>
  </g>
  <line class="arrow" x1="160" y1="95" x2="200" y2="95" />
  <line class="arrow" x1="360" y1="95" x2="400" y2="95" />
  <line class="arrow" x1="570" y1="95" x2="610" y2="95" />
  <line class="arrow" x1="780" y1="95" x2="820" y2="95" />
  <line class="arrow" x1="970" y1="95" x2="1000" y2="95" />
  <text class="subtitle" x="20" y="190">Output: HR / Resp Rate + Confidence + Metadata Log</text>
</svg>
